# AST/ASF file generated using VICON BodyLanguage
# -----------------------------------------------
:version 1.10
:name VICON
:units
  mass 1.0
  length 0.45
  angle deg
:documentation
   .ast/.asf automatically generated from VICON data using
   VICON BodyBuilder and BodyLanguage model FoxedUp or BRILLIANT.MOD
:root
   order TX TY TZ RX RY RZ
   axis XYZ
   position 0 0 0  
   orientation 0 0 0 
:bonedata
  begin
     id 1 
     name lhipjoint
     direction 0.54267 -0.795011 0.271047 
     length 2.39899 
     axis 0 0 0  XYZ
  end
  begin
     id 2 
     name lfemur
     direction 0.34202 -0.939693 0  
     length 7.49701  
     axis 0 0 20  XYZ
    dof rx ry rz
    limits (-160.0 20.0)
           (-70.0 70.0)
           (-60.0 70.0)
  end
  begin
     id 3 
     name ltibia
     direction 0.34202 -0.939693 0   
     length 8.1668   
     axis 0 0 20   XYZ
    dof rx
    limits (-10.0 170.0)
  end
  begin
     id 4 
     name lfoot
     direction 0.0736283 -0.202292 0.976554   
     length 2.13544   
     axis -90 7.62852e-016 20   XYZ
    dof rx rz
    limits (-45.0 90.0)
           (-70.0 20.0)
  end
  begin
     id 5 
     name ltoes
     direction 1.53557e-011 -4.22024e-011 1   
     length 1.07411   
     axis -90 7.62852e-016 20   XYZ
    dof rx
    limits (-90.0 20.0)
  end
  begin
     id 6 
     name rhipjoint
     direction -0.538061 -0.797813 0.272002   
     length 2.39057  
     axis 0 0 0  XYZ 
  end
  begin
     id 7 
     name rfemur
     direction -0.34202 -0.939693 0   
     length 7.50152   
     axis 0 0 -20   XYZ
    dof rx ry rz
    limits (-160.0 20.0)
           (-70.0 70.0)
           (-70.0 60.0)
  end
  begin
     id 8 
     name rtibia
     direction -0.34202 -0.939693 0   
     length 8.05793   
     axis 0 0 -20   XYZ
    dof rx
    limits (-10.0 170.0)
 end
 begin
     id 9 
     name rfoot
     direction -0.0765195 -0.210236 0.974652   
     length 2.28698  
     axis -90 -7.62852e-016 -20   XYZ
    dof rx rz
    limits (-45.0 90.0)
           (-20.0 70.0)
  end
  begin
     id 10 
     name rtoes
     direction -1.53542e-011 -4.21847e-011 1   
     length 1.14762   
     axis -90 -7.62852e-016 -20   XYZ
    dof rx
    limits (-90.0 20.0)
  end
  begin
     id 11 
     name lowerback
     direction -0.0217239 0.996592 -0.0795765   
     length 2.08176   
     axis 0 0 0   XYZ
    dof rx ry rz
    limits (-20.0 45.0)
           (-30.0 30.0)
           (-30.0 30.0)
  end
  begin
     id 12 
     name upperback
     direction -0.00563773 0.999651 -0.0258155   
     length 2.08898   
     axis 0 0 0   XYZ
    dof rx ry rz
    limits (-20.0 45.0)
           (-30.0 30.0)
           (-30.0 30.0)
  end
  begin
     id 13 
     name thorax
     direction 0.0032706 0.999923 0.0119599   
     length 2.0968   
     axis 0 0 0   XYZ
    dof rx ry rz
    limits (-20.0 45.0)
           (-30.0 30.0)
           (-30.0 30.0)
  end
  begin
     id 14 
     name lowerneck
     direction -0.0285886 0.99568 0.0883427   
     length 1.81272   
     axis 0 0 0   XYZ
    dof rx ry rz
    limits (-20.0 45.0)
           (-30.0 30.0)
           (-30.0 30.0)
  end
  begin
     id 15 
     name upperneck
     direction 0.0807535 0.97985 -0.18268   
     length 1.82518   
     axis 0 0 0   XYZ
    dof rx ry rz
    limits (-20.0 45.0)
           (-30.0 30.0)
           (-30.0 30.0)
  end
  begin
     id 16
     name head
     direction 0.0236605 0.997053 -0.0729767  
     length 1.84443  
     axis 0 0 0   XYZ
    dof rx ry rz
    limits (-20.0 45.0)
           (-30.0 30.0)
           (-30.0 30.0)
  end
  begin
     id 17 
     name lclavicle
     direction 0.918986 0.39378 -0.0200683  
     length 3.27822  
     axis 0 0 0   XYZ
    dof ry rz
    limits (-20.0 10.0)
           (0.0 20.0)
  end
  begin
     id 18 
     name lhumerus
     direction 1 -4.4897e-011 2.09544e-027   
     length 5.5568   
     axis 180 -30 -90   XYZ
    dof rx ry rz
    limits (-60.0 90.0)
           (-90.0 90.0)
           (-90.0 90.0)
  end
  begin
     id 19
     name lradius
     direction 1 -4.48957e-011 -1.27696e-026   
     length 3.63979   
     axis 180 -30 -90   XYZ
    dof rx
    limits (-10.0 170.0)
  end
  begin
     id 20
     name lwrist
     direction 1 -4.49001e-011 -1.49001e-026   
     length 1.8199   
     axis 9.0955e-015 90 90   XYZ
    dof ry
    limits (-180.0 0.0)
 end
  begin
     id 21 
     name lhand
     direction 1 -4.48709e-011 -2.9758e-026   
     length 0.569419   
     axis 1.90115e-014 90 90   XYZ
    dof rx rz
    limits (-90.0 90.0)
           (-45.0 45.0)
  end
  begin
     id 22 
     name lfingers
     direction 1 -4.49175e-011 -5.96505e-026   
     length 0.45908   
     axis 3.80223e-014 90 90   XYZ
    dof rx
    limits (0.0 90.0)
  end
  begin
     id 23
     name lthumb
     direction 0.707107 -6.34864e-011 0.707107   
     length 0.65915   
     axis -90 45 -3.84942e-014   XYZ
    dof rx rz
    limits (-45.0 45.0)
           (-45.0 45.0)
  end
  begin
     id 24 
     name rclavicle
     direction -0.911913 0.396426 -0.106115   
     length 3.46301  
     axis 0 0 0   XYZ 
    dof ry rz
    limits (-10.0 20.0)
           (-20.0 0.0)
  end
  begin
     id 25 
     name rhumerus
     direction -1 -4.48965e-011 7.78516e-028  
     length 5.34339   
     axis 180 30 90   XYZ
    dof rx ry rz
    limits (-90.0 60.0)
           (-90.0 90.0)
           (-90.0 90.0)
  end
  begin
     id 26 
     name rradius
     direction -1 -4.48948e-011 -5.79823e-027   
     length 3.65101   
     axis 180 30 90   XYZ
    dof rx
    limits (-10.0 170.0)
  end
  begin
     id 27 
     name rwrist
     direction -1 -4.48995e-011 -1.48996e-026   
     length 1.8255   
     axis 9.0955e-015 -90 -90   XYZ
    dof ry
    limits (-180.0 0.0)
  end
  begin
     id 28
     name rhand
     direction -1 -4.48957e-011 -2.97937e-026   
     length 0.694249   
     axis 1.90115e-014 -90 -90   XYZ
    dof rx rz
    limits (-90.0 90.0)
           (-45.0 45.0)
  end
  begin
     id 29
     name rfingers
     direction -1 -4.4898e-011 -5.95943e-026   
     length 0.559721   
     axis 3.80223e-014 -90 -90   XYZ
    dof rx
    limits (0.0 90.0)
  end
  begin
     id 30
     name rthumb
     direction -0.707107 -6.34969e-011 0.707107   
     length 0.803651   
     axis -90 -45 3.84942e-014   XYZ
    dof rx rz
    limits (-45.0 45.0)
           (-45.0 45.0)
  end
:hierarchy
  begin
    root lhipjoint rhipjoint lowerback
    lhipjoint lfemur
    lfemur ltibia
    ltibia lfoot
    lfoot ltoes
    rhipjoint rfemur
    rfemur rtibia
    rtibia rfoot
    rfoot rtoes
    lowerback upperback
    upperback thorax
    thorax lowerneck lclavicle rclavicle
    lowerneck upperneck
    upperneck head
    lclavicle lhumerus
    lhumerus lradius
    lradius lwrist
    lwrist lhand lthumb
    lhand lfingers
    rclavicle rhumerus
    rhumerus rradius
    rradius rwrist
    rwrist rhand rthumb
    rhand rfingers
  end

#!OML:ASF H:\Terrain\Walking\May29\JustinRory\rory.ASF
:FULLY-SPECIFIED
:DEGREES
392
root 16.4834 11.2098 2.13731 -346.433 -76.9385 348.949
lowerback 50.2602 4.29359 -6.42497
upperback 16.5705 -0.460363 2.82028
thorax -2.00809 -1.8879 6.20541
lowerneck 5.63646 -26.9835 -9.49528
upperneck -5.77403 -37.1416 35.7723
head 6.39728 -19.6444 8.35778
rclavicle 3.18055e-015 2.38542e-015
rhumerus 52.5811 10.4966 -36.5923
rradius 62.1339
rwrist -11.874
rhand 1.90946 30.577
rfingers 7.12502
rthumb 27.418 2.55208
lclavicle 3.18055e-015 2.38542e-015
lhumerus 57.9339 -3.62922 1.73317
lradius 53.3
lwrist 9.22495
lhand -16.4024 37.0127
lfingers 7.12502
lthumb 9.81196 -293.236
rfemur -91.1698 -23.6701 46.9594
rtibia 114.056
rfoot -33.4481 -39.4532
rtoes 21.4972
lfemur -88.9174 20.0083 -5.74911
ltibia 100.546
lfoot -6.31604 -21.9903
ltoes -11.8582
393
root 16.525 11.1752 2.09284 -348.389 -76.3161 350.348
lowerback 50.2503 3.81534 -6.08381
upperback 16.3855 -0.822112 2.59455
thorax -2.18112 -1.99361 5.94509
lowerneck 6.00125 -26.9106 -9.64045
upperneck -5.88718 -37.0514 35.7854
head 6.31486 -19.6385 8.45664
rclavicle 7.95139e-016 -3.02153e-014
rhumerus 53.4482 12.0292 -36.411
rradius 60.8229
rwrist -10.5481
rhand 2.37709 30.4167
rfingers 7.12502
rthumb 27.8652 2.46342
lclavicle 7.95139e-016 -3.02153e-014
lhumerus 57.7343 -3.34397 3.07507
lradius 52.8451
lwrist 8.8989
lhand -5.95666 27.7674
lfingers 7.12502
lthumb 19.874 -303.229
rfemur -91.1843 -24.4351 46.928
rtibia 114.299
rfoot -33.9477 -39.2346
rtoes 22.4207
lfemur -88.685 19.2315 -5.71496
ltibia 100.475
lfoot -6.49924 -21.8149
ltoes -13.8593
394
root 16.5681 11.1338 2.04633 -349.336 -75.9924 350.845
lowerback 49.9423 3.60989 -5.99255
upperback 16.2239 -0.946262 2.53355
thorax -2.31304 -2.01315 5.89019
lowerneck 6.7125 -26.8811 -10.0151
upperneck -6.21291 -36.9608 35.7822
head 6.15043 -19.6757 8.62281
rclavicle 1.59028e-015 -7.55382e-015
rhumerus 54.1336 13.5011 -36.0336
rradius 59.7592
rwrist -9.60867
rhand 2.91161 30.5303
rfingers 7.12502
rthumb 28.3761 2.661
lclavicle 1.59028e-015 -7.55382e-015
lhumerus 57.4451 -3.09536 4.41426
lradius 52.5615
lwrist 8.97236
lhand -7.71347 15.4688
lfingers 7.12502
lthumb 18.1845 -315.361
rfemur -91.1422 -24.6653 47.0187
rtibia 114.474
rfoot -34 -39.383
rtoes 21.9068
lfemur -88.5743 18.9039 -5.48461
ltibia 100.464
lfoot -6.05274 -21.8477
ltoes -13.3915
395
root 16.6043 11.0788 1.99879 -349.668 -76.0364 350.808
lowerback 49.3725 3.55451 -5.94355
upperback 16.2093 -0.928024 2.37094
thorax -2.26088 -1.97582 5.68779
lowerneck 6.98019 -26.8273 -10.3075
upperneck -6.39075 -36.8958 35.7959
head 6.09717 -19.6751 8.7051
rclavicle 4.77083e-015 -5.4467e-014
rhumerus 54.6486 14.6301 -35.659
rradius 59.0483
rwrist -8.67506
rhand 3.64142 30.787
rfingers 7.12502
rthumb 29.0733 3.03584
lclavicle 4.77083e-015 -5.4467e-014
lhumerus 57.2341 -2.72571 5.31598
lradius 52.3064
lwrist 9.10555
lhand -5.9127 17.8315
lfingers 7.12502
lthumb 19.9163 -313.169
rfemur -91.092 -24.354 47.1372
rtibia 114.685
rfoot -33.8716 -39.8872
rtoes 21.5839
lfemur -88.5708 19.2562 -5.22461
ltibia 100.536
lfoot -4.82172 -22.2843
ltoes -10.1538
396
root 16.638 11.0317 1.94643 -350.184 -75.9839 350.651
lowerback 49.2508 3.57891 -5.92126
upperback 16.1944 -0.876338 2.34806
thorax -2.26779 -1.94704 5.63463
lowerneck 6.74995 -26.6792 -10.8225
upperneck -6.14971 -36.8802 35.9388
head 6.34188 -19.6063 8.71771
rclavicle 3.18055e-014 5.92378e-014
rhumerus 55.1973 15.602 -35.1945
rradius 58.4832
rwrist -7.82323
rhand 4.32075 30.9107
rfingers 7.12502
rthumb 29.7219 3.27341
lclavicle 3.18055e-014 5.92378e-014
lhumerus 57.0586 -2.26633 6.31401
lradius 51.9213
lwrist 9.07908
lhand -5.84188 20.7053
lfingers 7.12502
lthumb 19.9843 -310.302
rfemur -90.6224 -24.3343 47.2421
rtibia 114.87
rfoot -34.2795 -40.166
rtoes 22.081
lfemur -88.1427 19.3822 -4.79254
ltibia 100.536
lfoot -3.70428 -22.6202
ltoes -7.06015
397
root 16.6818 10.9912 1.89923 -352.183 -75.7684 351.8
lowerback 49.4312 3.71842 -6.24271
upperback 16.1961 -0.858768 2.61754
thorax -2.28127 -1.98387 6.06758
lowerneck 6.3216 -26.5842 -11.5412
upperneck -5.82657 -36.9456 35.936
head 6.66503 -19.5327 8.64508
rclavicle 5.56597e-015 2.94201e-014
rhumerus 56.2663 16.6007 -34.3852
rradius 57.6899
rwrist -7.19243
rhand 4.29208 30.716
rfingers 7.12502
rthumb 29.6945 3.07383
lclavicle 5.56597e-015 2.94201e-014
lhumerus 56.6703 -1.72056 7.91499
lradius 51.6204
lwrist 8.95992
lhand -3.77336 18.4617
lfingers 7.12502
lthumb 21.9716 -312.766
rfemur -90.0093 -24.8206 46.9875
rtibia 115.065
rfoot -35.002 -39.87
rtoes 22.995
lfemur -87.484 19.012 -4.64143
ltibia 100.493
lfoot -2.99399 -22.6676
ltoes -5.09977
398
root 16.7321 10.9505 1.85976 -356.044 -75.5419 355.105
lowerback 49.2037 3.74435 -6.77328
upperback 16.257 -1.03871 2.62152
thorax -2.1418 -2.09992 6.38318
lowerneck 5.93048 -26.5454 -11.7512
upperneck -5.73461 -36.9332 35.7149
head 6.73581 -19.4601 8.53693
rclavicle 3.18055e-014 1.63003e-014
rhumerus 57.7785 17.7806 -34.3921
rradius 56.257
rwrist -5.6915
rhand 3.9251 30.4252
rfingers 7.12502
rthumb 29.3442 2.72116
lclavicle 3.18055e-014 1.63003e-014
lhumerus 56.1855 -1.19687 9.29836
lradius 51.6901
lwrist 9.08759
lhand -3.24676 17.686
lfingers 7.12502
lthumb 22.4771 -313.602
rfemur -90.2311 -25.3799 46.2418
rtibia 115.511
rfoot -35.465 -38.9497
rtoes 28.898
lfemur -87.1009 18.4922 -5.27685
ltibia 100.417
lfoot -2.82881 -22.4461
ltoes -6.43402
399
root 16.7793 10.9177 1.80983 -359.135 -75.3989 357.512
lowerback 49.0007 3.64975 -6.97896
upperback 16.2327 -1.23084 2.33149
thorax -2.10822 -2.17307 6.23669
lowerneck 6.2351 -26.4635 -11.6929
upperneck -6.08908 -36.7429 35.6721
head 6.50907 -19.4309 8.64142
rclavicle -2.8625e-014 -2.90226e-014
rhumerus 58.1765 18.5268 -34.3684
rradius 55.8543
rwrist -4.88193
rhand 4.5118 30.5793
rfingers 7.12502
rthumb 29.9042 2.97472
lclavicle -2.8625e-014 -2.90226e-014
lhumerus 55.8362 -0.984551 10.0719
lradius 51.7865
lwrist 9.45474
lhand -6.07843 15.4082
lfingers 7.12502
lthumb 19.757 -315.576
rfemur -90.4197 -25.7419 45.6252
rtibia 116.001
rfoot -35.6796 -38.145
rtoes 39.4269
lfemur -86.4706 18.1817 -5.67367
ltibia 100.256
lfoot -2.83654 -22.3313
ltoes -8.80726
400
root 16.8246 10.8862 1.75846 -360.021 -75.3045 357.402
lowerback 49.3247 3.53211 -6.73313
upperback 16.0434 -1.28851 2.199
thorax -2.3646 -2.16391 6.00605
lowerneck 6.60905 -26.3511 -11.9623
upperneck -6.22455 -36.6148 35.6877
head 6.43353 -19.4037 8.76016
rclavicle 4.37326e-014 -3.97569e-016
rhumerus 58.2452 19.2318 -34.3041
rradius 55.8391
rwrist -4.83753
rhand 6.1443 30.465
rfingers 7.12502
rthumb 31.4608 3.15239
lclavicle 4.37326e-014 -3.97569e-016
lhumerus 55.4213 -0.989745 10.6411
lradius 51.8232
lwrist 9.63569
lhand -6.37024 20.2193
lfingers 7.12502
lthumb 19.4764 -310.736
rfemur -89.7887 -26.002 45.4807
rtibia 116.226
rfoot -35.7939 -38.1916
rtoes 41.2274
lfemur -85.5773 18.0618 -5.31066
ltibia 100.116
lfoot -2.81223 -22.3671
ltoes -9.0815
401
root 16.871 10.8433 1.72636 -360.428 -75.1623 357.024
lowerback 49.5143 3.30576 -6.35893
upperback 15.8596 -1.38572 2.13666
thorax -2.59909 -2.16943 5.80836
lowerneck 6.39193 -26.2601 -12.2519
upperneck -5.78466 -36.6198 35.3429
head 6.57431 -19.3116 8.64024
rclavicle 1.51076e-014 2.38542e-015
rhumerus 57.6191 19.6025 -33.1553
rradius 57.135
rwrist -5.62053
rhand 7.2988 29.8749
rfingers 7.12502
rthumb 32.5601 2.7829
lclavicle 1.51076e-014 2.38542e-015
lhumerus 54.923 -0.92494 11.2675
lradius 52.0291
lwrist 9.86555
lhand -6.96924 20.3625
lfingers 7.12502
lthumb 18.9004 -310.536
rfemur -89.3231 -26.2523 45.4757
rtibia 116.393
rfoot -35.676 -38.5718
rtoes 40.6551
lfemur -85.0813 17.8897 -4.96881
ltibia 100.102
lfoot -2.9743 -22.1793
ltoes -10.2176
